# AST/ASF file generated using VICON BodyLanguage
# -----------------------------------------------
:version 1.10
:name VICON
:units
  mass 1.0
  length 0.45
  angle deg
:documentation
   .ast/.asf automatically generated from VICON data using
   VICON BodyBuilder and BodyLanguage model FoxedUp or BRILLIANT.MOD
:root
   order TX TY TZ RX RY RZ
   axis XYZ
   position 0 0 0  
   orientation 0 0 0 
:bonedata
  begin
     id 1 
     name lhipjoint
     direction 0.722297 -0.617336 0.311742 
     length 2.6635 
     axis 0 0 0  XYZ
  end
  begin
     id 2 
     name lfemur
     direction 0.34202 -0.939693 0  
     length 7.39349  
     axis 0 0 20  XYZ
    dof rx ry rz
    limits (-160.0 20.0)
           (-70.0 70.0)
           (-60.0 70.0)
  end
  begin
     id 3 
     name ltibia
     direction 0.34202 -0.939693 0   
     length 7.36294   
     axis 0 0 20   XYZ
    dof rx
    limits (-10.0 170.0)
  end
  begin
     id 4 
     name lfoot
     direction 0.104879 -0.288152 0.951824   
     length 2.16981   
     axis -90 7.62852e-016 20   XYZ
    dof rx rz
    limits (-45.0 90.0)
           (-70.0 20.0)
  end
  begin
     id 5 
     name ltoes
     direction 1.53586e-011 -4.21895e-011 1   
     length 1.08218   
     axis -90 7.62852e-016 20   XYZ
    dof rx
    limits (-90.0 20.0)
  end
  begin
     id 6 
     name rhipjoint
     direction -0.75102 -0.589393 0.297631   
     length 2.78977  
     axis 0 0 0  XYZ 
  end
  begin
     id 7 
     name rfemur
     direction -0.34202 -0.939693 0   
     length 7.46076   
     axis 0 0 -20   XYZ
    dof rx ry rz
    limits (-160.0 20.0)
           (-70.0 70.0)
           (-70.0 60.0)
  end
  begin
     id 8 
     name rtibia
     direction -0.34202 -0.939693 0   
     length 7.31726   
     axis 0 0 -20   XYZ
    dof rx
    limits (-10.0 170.0)
 end
 begin
     id 9 
     name rfoot
     direction -0.107991 -0.296704 0.948844   
     length 2.09388  
     axis -90 -7.62852e-016 -20   XYZ
    dof rx rz
    limits (-45.0 90.0)
           (-20.0 70.0)
  end
  begin
     id 10 
     name rtoes
     direction -1.53559e-011 -4.21911e-011 1   
     length 1.04433   
     axis -90 -7.62852e-016 -20   XYZ
    dof rx
    limits (-90.0 20.0)
  end
  begin
     id 11 
     name lowerback
     direction 0.0165164 0.98272 0.184358   
     length 1.71896   
     axis 0 0 0   XYZ
    dof rx ry rz
    limits (-20.0 45.0)
           (-30.0 30.0)
           (-30.0 30.0)
  end
  begin
     id 12 
     name upperback
     direction -0.00887249 0.992297 0.123566   
     length 1.71504   
     axis 0 0 0   XYZ
    dof rx ry rz
    limits (-20.0 45.0)
           (-30.0 30.0)
           (-30.0 30.0)
  end
  begin
     id 13 
     name thorax
     direction -0.0157026 0.998908 0.0440032   
     length 1.77022   
     axis 0 0 0   XYZ
    dof rx ry rz
    limits (-20.0 45.0)
           (-30.0 30.0)
           (-30.0 30.0)
  end
  begin
     id 14 
     name lowerneck
     direction -0.0238856 0.998137 0.0561411   
     length 1.89341   
     axis 0 0 0   XYZ
    dof rx ry rz
    limits (-20.0 45.0)
           (-30.0 30.0)
           (-30.0 30.0)
  end
  begin
     id 15 
     name upperneck
     direction 0.0276574 0.952253 -0.304056   
     length 1.86999   
     axis 0 0 0   XYZ
    dof rx ry rz
    limits (-20.0 45.0)
           (-30.0 30.0)
           (-30.0 30.0)
  end
  begin
     id 16
     name head
     direction 0.00800083 0.994258 -0.106712  
     length 1.91492  
     axis 0 0 0   XYZ
    dof rx ry rz
    limits (-20.0 45.0)
           (-30.0 30.0)
           (-30.0 30.0)
  end
  begin
     id 17 
     name lclavicle
     direction 0.97203 0.225407 0.06595  
     length 3.34889  
     axis 0 0 0   XYZ
    dof ry rz
    limits (-20.0 10.0)
           (0.0 20.0)
  end
  begin
     id 18 
     name lhumerus
     direction 1 -4.48973e-011 2.20267e-027   
     length 4.85645   
     axis 180 -30 -90   XYZ
    dof rx ry rz
    limits (-60.0 90.0)
           (-90.0 90.0)
           (-90.0 90.0)
  end
  begin
     id 19
     name lradius
     direction 1 -4.4897e-011 4.60472e-027   
     length 2.79874   
     axis 180 -30 -90   XYZ
    dof rx
    limits (-10.0 170.0)
  end
  begin
     id 20
     name lwrist
     direction 1 -4.48952e-011 1.14928e-026   
     length 1.39937   
     axis -6.29373e-015 90 90   XYZ
    dof ry
    limits (-180.0 0.0)
 end
  begin
     id 21 
     name lhand
     direction 1 -4.48967e-011 2.29886e-026   
     length 0.573398   
     axis -1.46689e-014 90 90   XYZ
    dof rx rz
    limits (-90.0 90.0)
           (-45.0 45.0)
  end
  begin
     id 22 
     name lfingers
     direction 1 -4.48955e-011 4.59726e-026   
     length 0.462289   
     axis -2.93383e-014 90 90   XYZ
    dof rx
    limits (0.0 90.0)
  end
  begin
     id 23
     name lthumb
     direction 0.707107 -6.34866e-011 0.707107   
     length 0.663757   
     axis -90 45 5.69224e-014   XYZ
    dof rx rz
    limits (-45.0 45.0)
           (-45.0 45.0)
  end
  begin
     id 24 
     name rclavicle
     direction -0.981571 0.157346 0.108443   
     length 3.35257  
     axis 0 0 0   XYZ 
    dof ry rz
    limits (-10.0 20.0)
           (-20.0 0.0)
  end
  begin
     id 25 
     name rhumerus
     direction -1 -4.48967e-011 8.58308e-029  
     length 4.67018   
     axis 180 30 90   XYZ
    dof rx ry rz
    limits (-90.0 60.0)
           (-90.0 90.0)
           (-90.0 90.0)
  end
  begin
     id 26 
     name rradius
     direction -1 -4.48958e-011 4.52548e-027   
     length 2.65534   
     axis 180 30 90   XYZ
    dof rx
    limits (-10.0 170.0)
  end
  begin
     id 27 
     name rwrist
     direction -1 -4.48977e-011 1.14952e-026   
     length 1.32767   
     axis -6.29373e-015 -90 -90   XYZ
    dof ry
    limits (-180.0 0.0)
  end
  begin
     id 28
     name rhand
     direction -1 -4.48924e-011 2.29804e-026   
     length 0.594069   
     axis -1.46689e-014 -90 -90   XYZ
    dof rx rz
    limits (-90.0 90.0)
           (-45.0 45.0)
  end
  begin
     id 29
     name rfingers
     direction -1 -4.48998e-011 4.59888e-026   
     length 0.478954   
     axis -2.93383e-014 -90 -90   XYZ
    dof rx
    limits (0.0 90.0)
  end
  begin
     id 30
     name rthumb
     direction -0.707107 -6.34933e-011 0.707107   
     length 0.687685   
     axis -90 -45 -5.69224e-014   XYZ
    dof rx rz
    limits (-45.0 45.0)
           (-45.0 45.0)
  end
:hierarchy
  begin
    root lhipjoint rhipjoint lowerback
    lhipjoint lfemur
    lfemur ltibia
    ltibia lfoot
    lfoot ltoes
    rhipjoint rfemur
    rfemur rtibia
    rtibia rfoot
    rfoot rtoes
    lowerback upperback
    upperback thorax
    thorax lowerneck lclavicle rclavicle
    lowerneck upperneck
    upperneck head
    lclavicle lhumerus
    lhumerus lradius
    lradius lwrist
    lwrist lhand lthumb
    lhand lfingers
    rclavicle rhumerus
    rhumerus rradius
    rradius rwrist
    rwrist rhand rthumb
    rhand rfingers
  end

#!OML:ASF E:\pregnant2\Project 1\Capture day 1\Session 1\pregnant2.ASF
:FULLY-SPECIFIED
:DEGREES
1787
root -6.73555 17.0907 20.6193 26.2436 -1.31385 -2.04941
lowerback -13.6565 0.658306 3.57234
upperback -12.3708 0.57172 0.950568
thorax -5.47848 0.0644194 -0.946762
lowerneck -16.1897 -1.30375 -2.73106
upperneck 36.1638 -0.107563 -2.50061
head 15.4307 -0.79647 -0.60228
rclavicle 8.22472e-015 -1.59028e-014
rhumerus -115.86 34.7509 -144.667
rradius 86.3494
rwrist 36.8322
rhand -54.4032 -50.8024
rfingers 7.12502
rthumb -26.8092 -78.9222
lclavicle 8.22472e-015 -1.59028e-014
lhumerus -115.048 -37.6771 144.278
lradius 91.9802
lwrist -19.7168
lhand -45.1727 36.0849
lfingers 7.12502
lthumb -17.9499 65.2766
rfemur -38.1637 11.6407 25.0796
rtibia 32.0819
rfoot -16.94 -13.4334
rtoes 5.68118
lfemur -40.1526 -2.68282 -3.87771
ltibia 41.5195
lfoot -10.9304 17.0629
ltoes -8.34254
1788
root -6.7578 17.0959 20.6165 26.2802 -1.14008 -1.97038
lowerback -13.6661 0.652286 3.63661
upperback -12.3677 0.55863 0.944124
thorax -5.47075 0.0534214 -0.99058
lowerneck -16.1903 -1.3012 -2.73368
upperneck 36.2075 -0.0810006 -2.55044
head 15.4527 -0.792661 -0.618953
rclavicle -2.31087e-015 -7.95139e-016
rhumerus -115.801 34.7383 -144.631
rradius 86.3314
rwrist 36.8069
rhand -54.3913 -50.7803
rfingers 7.12502
rthumb -26.7978 -78.9018
lclavicle -2.31087e-015 -7.95139e-016
lhumerus -115.102 -37.6891 144.288
lradius 92.0198
lwrist -19.735
lhand -45.1742 36.0791
lfingers 7.12502
lthumb -17.9513 65.2707
rfemur -38.1472 11.5164 25.1269
rtibia 31.9719
rfoot -16.9022 -13.4388
rtoes 5.75628
lfemur -40.5459 -2.48727 -3.86068
ltibia 41.9467
lfoot -10.614 16.4323
ltoes -7.89339
1789
root -6.77964 17.1008 20.6136 26.3099 -0.970656 -1.89573
lowerback -13.6717 0.646955 3.70361
upperback -12.3621 0.546382 0.940671
thorax -5.46256 0.0428156 -1.03272
lowerneck -16.1968 -1.29906 -2.74391
upperneck 36.2535 -0.0535155 -2.59652
head 15.4774 -0.789071 -0.632665
rclavicle -3.77691e-015 9.14409e-015
rhumerus -115.751 34.734 -144.604
rradius 86.3172
rwrist 36.7832
rhand -54.3875 -50.74
rfingers 7.12502
rthumb -26.7942 -78.8621
lclavicle -3.77691e-015 9.14409e-015
lhumerus -115.144 -37.6957 144.286
lradius 92.0565
lwrist -19.7644
lhand -45.1741 36.0738
lfingers 7.12502
lthumb -17.9512 65.2654
rfemur -38.1273 11.3845 25.1823
rtibia 31.8681
rfoot -16.8674 -13.4355
rtoes 5.82217
lfemur -40.9453 -2.27854 -3.85597
ltibia 42.4349
lfoot -10.407 15.8142
ltoes -7.3714
1790
root -6.80085 17.1057 20.611 26.3274 -0.8079 -1.82869
lowerback -13.6706 0.644983 3.77979
upperback -12.3547 0.538056 0.938836
thorax -5.4558 0.0335893 -1.07799
lowerneck -16.1967 -1.29697 -2.75693
upperneck 36.2964 -0.0266584 -2.63968
head 15.4991 -0.785662 -0.644653
rclavicle -3.40419e-015 3.97569e-016
rhumerus -115.705 34.7283 -144.58
rradius 86.3089
rwrist 36.7612
rhand -54.3895 -50.6838
rfingers 7.12502
rthumb -26.7961 -78.8056
lclavicle -3.40419e-015 3.97569e-016
lhumerus -115.179 -37.6988 144.274
lradius 92.0936
lwrist -19.7992
lhand -45.1734 36.068
lfingers 7.12502
lthumb -17.9505 65.2596
rfemur -38.0944 11.2577 25.2446
rtibia 31.7659
rfoot -16.8345 -13.4341
rtoes 5.87274
lfemur -41.3449 -2.05352 -3.86528
ltibia 43.0056
lfoot -10.3374 15.2505
ltoes -6.86028
1791
root -6.82127 17.1107 20.6078 26.3296 -0.654561 -1.76653
lowerback -13.6547 0.641033 3.85933
upperback -12.344 0.527499 0.942099
thorax -5.45346 0.0231513 -1.12003
lowerneck -16.2036 -1.29427 -2.77028
upperneck 36.3413 0.00361801 -2.68832
head 15.5235 -0.781788 -0.658466
rclavicle -2.06239e-015 -2.46493e-014
rhumerus -115.679 34.7372 -144.58
rradius 86.3037
rwrist 36.7408
rhand -54.3866 -50.6749
rfingers 7.12502
rthumb -26.7933 -78.7971
lclavicle -2.06239e-015 -2.46493e-014
lhumerus -115.193 -37.6919 144.24
lradius 92.1272
lwrist -19.8426
lhand -45.1711 36.06
lfingers 7.12502
lthumb -17.9483 65.2518
rfemur -38.0457 11.1443 25.3054
rtibia 31.6599
rfoot -16.8024 -13.4376
rtoes 5.93705
lfemur -41.7468 -1.80934 -3.89549
ltibia 43.6815
lfoot -10.3995 14.7776
ltoes -6.37067
1792
root -6.84091 17.1158 20.6047 26.3148 -0.5155 -1.70673
lowerback -13.6286 0.63595 3.93726
upperback -12.3283 0.515996 0.949949
thorax -5.4513 0.0125758 -1.15647
lowerneck -16.2123 -1.2913 -2.78341
upperneck 36.3846 0.036419 -2.74285
head 15.5477 -0.777729 -0.674422
rclavicle 1.39149e-015 -7.15625e-015
rhumerus -115.67 34.7581 -144.604
rradius 86.2991
rwrist 36.7174
rhand -54.388 -50.7131
rfingers 7.12502
rthumb -26.7947 -78.8351
lclavicle 1.39149e-015 -7.15625e-015
lhumerus -115.187 -37.673 144.184
lradius 92.157
lwrist -19.8935
lhand -45.1685 36.0571
lfingers 7.12502
lthumb -17.9458 65.2491
rfemur -37.9736 11.0376 25.3641
rtibia 31.5416
rfoot -16.7645 -13.4345
rtoes 6.01024
lfemur -42.1458 -1.54599 -3.95122
ltibia 44.4758
lfoot -10.5634 14.4117
ltoes -5.89762
1793
root -6.8598 17.1213 20.6012 26.2958 -0.391097 -1.6496
lowerback -13.5985 0.629462 4.01337
upperback -12.3145 0.503085 0.962474
thorax -5.45347 0.00148818 -1.18708
lowerneck -16.2181 -1.28645 -2.79327
upperneck 36.4265 0.0735764 -2.80503
head 15.5707 -0.772527 -0.693439
rclavicle 4.09993e-015 6.36111e-015
rhumerus -115.687 34.787 -144.66
rradius 86.2903
rwrist 36.693
rhand -54.3874 -50.8071
rfingers 7.12502
rthumb -26.7941 -78.9292
lclavicle 4.09993e-015 6.36111e-015
lhumerus -115.159 -37.6396 144.104
lradius 92.1841
lwrist -19.9539
lhand -45.1704 36.0509
lfingers 7.12502
lthumb -17.9477 65.2428
rfemur -37.8911 10.937 25.4185
rtibia 31.4062
rfoot -16.7139 -13.4196
rtoes 6.12037
lfemur -42.5565 -1.26639 -4.02745
ltibia 45.396
lfoot -10.7923 14.149
ltoes -5.49596
1794
root -6.87804 17.1278 20.598 26.2713 -0.289426 -1.59138
lowerback -13.5702 0.623013 4.08168
upperback -12.3013 0.490785 0.977915
thorax -5.45526 -0.00865327 -1.21017
lowerneck -16.2065 -1.27444 -2.7928
upperneck 36.4594 0.119823 -2.87497
head 15.5851 -0.762993 -0.715667
rclavicle 1.13059e-014 -3.97569e-016
rhumerus -115.727 34.8171 -144.74
rradius 86.2788
rwrist 36.6737
rhand -54.3881 -50.94
rfingers 7.12502
rthumb -26.7948 -79.062
lclavicle 1.13059e-014 -3.97569e-016
lhumerus -115.11 -37.5898 144
lradius 92.2053
lwrist -20.0252
lhand -45.1664 36.022
lfingers 7.12502
lthumb -17.9438 65.2142
rfemur -37.7904 10.8421 25.4643
rtibia 31.2439
rfoot -16.6457 -13.3899
rtoes 6.23999
lfemur -42.968 -0.989647 -4.12209
ltibia 46.4359
lfoot -11.0216 13.9647
ltoes -5.07337
1795
root -6.8962 17.1353 20.5952 26.2539 -0.205257 -1.5308
lowerback -13.5517 0.622631 4.14199
upperback -12.2888 0.486614 0.990046
thorax -5.45218 -0.014188 -1.23154
lowerneck -16.1792 -1.25685 -2.78812
upperneck 36.4784 0.167674 -2.93359
head 15.5888 -0.750224 -0.733063
rclavicle -8.79622e-015 1.23246e-014
rhumerus -115.762 34.84 -144.823
rradius 86.2577
rwrist 36.6447
rhand -54.4056 -51.0465
rfingers 7.12502
rthumb -26.8115 -79.1659
lclavicle -8.79622e-015 1.23246e-014
lhumerus -115.059 -37.5468 143.893
lradius 92.2266
lwrist -20.0923
lhand -45.1641 35.9832
lfingers 7.12502
lthumb -17.9416 65.1757
rfemur -37.683 10.7527 25.5008
rtibia 31.0523
rfoot -16.555 -13.3477
rtoes 6.37344
lfemur -43.395 -0.711812 -4.22979
ltibia 47.5939
lfoot -11.215 13.8019
ltoes -4.67858
1796
root -6.91415 17.1448 20.5931 26.2372 -0.139342 -1.46764
lowerback -13.5358 0.62421 4.19329
upperback -12.2792 0.485686 1.0019
thorax -5.45071 -0.017543 -1.24788
lowerneck -16.1285 -1.2316 -2.78009
upperneck 36.4836 0.221705 -2.98521
head 15.58 -0.733018 -0.746442
rclavicle -3.52843e-015 -1.07344e-014
rhumerus -115.81 34.8536 -144.919
rradius 86.2307
rwrist 36.6062
rhand -54.4278 -51.129
rfingers 7.12502
rthumb -26.8327 -79.2452
lclavicle -3.52843e-015 -1.07344e-014
lhumerus -115.003 -37.5008 143.783
lradius 92.2475
lwrist -20.1532
lhand -45.1537 35.9204
lfingers 7.12502
lthumb -17.9316 65.1138
rfemur -37.5595 10.6542 25.5353
rtibia 30.8278
rfoot -16.4425 -13.285
rtoes 6.48259
lfemur -43.8269 -0.44632 -4.34664
ltibia 48.862
lfoot -11.3564 13.6299
ltoes -4.263
1797
root -6.93092 17.155 20.5904 26.2591 -0.101645 -1.41
lowerback -13.5481 0.641175 4.25949
upperback -12.28 0.502301 1.00611
thorax -5.44479 -0.0135583 -1.27891
lowerneck -16.0807 -1.20659 -2.77522
upperneck 36.4876 0.271389 -3.02345
head 15.5713 -0.716144 -0.754327
rclavicle -5.2181e-015 -1.90833e-014
rhumerus -115.85 34.8587 -145.014
rradius 86.1992
rwrist 36.5577
rhand -54.4531 -51.1705
rfingers 7.12502
rthumb -26.857 -79.283
lclavicle -5.2181e-015 -1.90833e-014
lhumerus -114.949 -37.4665 143.675
lradius 92.2669
lwrist -20.207
lhand -45.1425 35.8462
lfingers 7.12502
lthumb -17.9208 65.0406
rfemur -37.4728 10.5501 25.5638
rtibia 30.5774
rfoot -16.2946 -13.1904
rtoes 6.53758
lfemur -44.3164 -0.146238 -4.47748
ltibia 50.2454
lfoot -11.426 13.4167
ltoes -3.81456
1798
root -6.9468 17.1657 20.5881 26.3087 -0.088029 -1.35661
lowerback -13.5846 0.67496 4.33937
upperback -12.2874 0.538503 1.00026
thorax -5.43227 -0.0011058 -1.32637
lowerneck -16.0225 -1.18149 -2.77489
upperneck 36.4827 0.314303 -3.04153
head 15.5554 -0.699597 -0.753696
rclavicle 7.65321e-015 2.38542e-015
rhumerus -115.868 34.8437 -145.088
rradius 86.1641
rwrist 36.491
rhand -54.4983 -51.1475
rfingers 7.12502
rthumb -26.9002 -79.2533
lclavicle 7.65321e-015 2.38542e-015
lhumerus -114.91 -37.4513 143.585
lradius 92.2878
lwrist -20.247
lhand -45.1318 35.7708
lfingers 7.12502
lthumb -17.9105 64.966
rfemur -37.4082 10.4421 25.5879
rtibia 30.3058
rfoot -16.1245 -13.0704
rtoes 6.55068
lfemur -44.8512 0.198432 -4.62616
ltibia 51.7405
lfoot -11.4107 13.1549
ltoes -3.3589
1799
root -6.96142 17.1766 20.5845 26.3812 -0.0935705 -1.30424
lowerback -13.6339 0.715651 4.42816
upperback -12.3001 0.582158 0.988436
thorax -5.41831 0.0141041 -1.38432
lowerneck -15.9836 -1.15925 -2.77539
upperneck 36.4867 0.352246 -3.05442
head 15.5485 -0.684823 -0.751982
rclavicle 4.02539e-015 -1.59028e-014
rhumerus -115.883 34.8268 -145.165
rradius 86.1324
rwrist 36.4281
rhand -54.5269 -51.1849
rfingers 7.12502
rthumb -26.9275 -79.2865
lclavicle 4.02539e-015 -1.59028e-014
lhumerus -114.867 -37.4469 143.494
lradius 92.3061
lwrist -20.2876
lhand -45.1261 35.7119
lfingers 7.12502
lthumb -17.905 64.9076
rfemur -37.3714 10.3382 25.6003
rtibia 30.0222
rfoot -15.9346 -12.9362
rtoes 6.55222
lfemur -45.4411 0.592067 -4.79678
ltibia 53.3472
lfoot -11.3114 12.8548
ltoes -2.84305
1800
root -6.97527 17.1879 20.5804 26.4628 -0.109188 -1.24965
lowerback -13.688 0.761299 4.52016
upperback -12.3172 0.631649 0.970018
thorax -5.40625 0.0316181 -1.45041
lowerneck -15.9496 -1.14252 -2.77549
upperneck 36.4938 0.38092 -3.06469
head 15.5442 -0.673627 -0.750988
rclavicle 2.48481e-016 4.77083e-015
rhumerus -115.893 34.7925 -145.234
rradius 86.1042
rwrist 36.3668
rhand -54.5506 -51.2478
rfingers 7.12502
rthumb -26.9502 -79.3459
lclavicle 2.48481e-016 4.77083e-015
lhumerus -114.836 -37.4518 143.415
lradius 92.3218
lwrist -20.3284
lhand -45.1234 35.6743
lfingers 7.12502
lthumb -17.9024 64.8703
rfemur -37.3458 10.2366 25.6031
rtibia 29.7332
rfoot -15.7413 -12.7943
rtoes 6.56095
lfemur -46.0667 1.01805 -4.98598
ltibia 55.0539
lfoot -11.1213 12.5466
ltoes -2.23118
